<?xml version="1.0" encoding="utf-8"?>
<!-- Generator: Adobe Illustrator 27.4.0, SVG Export Plug-In . SVG Version: 6.00 Build 0)  -->
<svg version="1.1" id="Layer_1" xmlns="http://www.w3.org/2000/svg" xmlns:xlink="http://www.w3.org/1999/xlink" x="0px" y="0px"
	 viewBox="0 0 111.6 23.5" style="enable-background:new 0 0 111.6 23.5;" xml:space="preserve">
<style type="text/css">
	.st0{fill:#333333;}
	.st1{fill:none;}
	.st2{fill:#003F70;}
	.st3{fill:#E8CF9D;}
</style>
<g>
	<g>
		<path class="st0" d="M37.7,14.1v-3.1h-2.4v3.1h-2.2V6.1h2.2v2.9h2.4V6.1h2.2v7.9H37.7z"/>
		<path class="st0" d="M45.7,14.1v-3.1h-2.4v3.1h-2.2V6.1h2.2v2.9h2.4V6.1h2.2v7.9H45.7z"/>
		<path class="st0" d="M50.8,14.2c-0.9,0-1.8-0.2-2.5-1.3l1.7-1c0.2,0.3,0.4,0.6,0.7,0.6c0.4,0,0.5-0.2,0.5-0.7V6.1h2.2v5.2
			C53.4,13,52.7,14.2,50.8,14.2z"/>
		<path class="st0" d="M63.9,14.1V9h0l-1.3,5h-1.7l-1.3-5h0v5h-2V6.1h2.8l1.4,5.2h0l1.4-5.2h2.8v7.9H63.9z"/>
		<path class="st0" d="M69.5,14.2c-1.9,0-2.6-1.4-2.6-3.1c0-1.8,1.1-2.9,2.7-2.9c1.8,0,2.6,1.2,2.6,3c0,0.1,0,0.2,0,0.4h-3.4
			c0.1,0.7,0.3,1.2,0.9,1.2c0.5,0,0.8-0.3,1.1-0.7l1.4,0.7C71.4,13.9,70.5,14.2,69.5,14.2z M68.7,10.4h1.6c0-0.6-0.3-0.9-0.8-0.9
			C69.1,9.5,68.8,9.9,68.7,10.4z"/>
		<path class="st0" d="M76.6,14.1l-0.2-0.6c-0.5,0.4-1,0.7-1.7,0.7c-1.4,0-2.1-1.2-2.1-3c0-1.8,0.9-3,2.3-3c0.5,0,0.9,0.2,1.3,0.4
			V6.1h1.9v7.9H76.6z M76.2,10c-0.2-0.2-0.4-0.3-0.7-0.3c-0.7,0-1,0.6-1,1.6c0,0.9,0.4,1.4,0.9,1.4c0.3,0,0.5-0.1,0.7-0.3V10z"/>
		<path class="st0" d="M79.2,7.6V6H81v1.6H79.2z M79.2,14.1V8.3H81v5.8H79.2z"/>
		<path class="st0" d="M85.1,14.1L85,13.5c-0.5,0.4-1,0.7-1.8,0.7c-0.9,0-1.5-0.6-1.5-1.6c0-0.8,0.4-1.3,1-1.6
			c0.6-0.3,1.3-0.5,2.3-0.7c0.1-0.4-0.1-0.8-0.7-0.8c-0.5,0-0.8,0.2-1,0.6L82,9.3c0.5-0.8,1.4-1.1,2.5-1.1c1.6,0,2.3,0.7,2.3,2.2
			v2.5l0.1,1.2H85.1z M84.9,11.4c-0.5,0.1-0.7,0.1-0.9,0.3c-0.2,0.1-0.3,0.3-0.3,0.6c0,0.3,0.2,0.5,0.5,0.5c0.3,0,0.5-0.1,0.8-0.3
			V11.4z"/>
		<path class="st0" d="M91.2,14c-0.4,0.1-0.8,0.1-1.2,0.1c-1.3,0-1.8-0.4-1.8-1.9V9.7h-0.9V8.3h0.9V6.4h1.9v1.9h1.1v1.4h-1.1V12
			c0,0.4,0.2,0.6,0.5,0.6c0.2,0,0.4,0,0.6-0.1V14z"/>
		<path class="st0" d="M92,7.6V6h1.9v1.6H92z M92,14.1V8.3h1.9v5.8H92z"/>
		<path class="st0" d="M94.7,11.2c0-1.9,1-3.1,2.8-3.1c1.7,0,2.8,1.1,2.8,3.1c0,1.9-1,3-2.8,3C95.7,14.2,94.7,13.1,94.7,11.2z
			 M98.3,11.2c0-0.9-0.2-1.6-0.8-1.6c-0.6,0-0.8,0.8-0.8,1.6c0,0.9,0.2,1.5,0.8,1.5C98,12.8,98.3,12.1,98.3,11.2z"/>
		<path class="st0" d="M104.3,14.1v-3.7c0-0.5-0.2-0.7-0.6-0.7c-0.2,0-0.5,0.1-0.8,0.3v4H101V8.3h1.7v0.6c0.6-0.5,1.2-0.7,1.8-0.7
			c0.8,0,1.2,0.3,1.5,0.9c0.1,0.3,0.2,0.6,0.2,1.4v3.7H104.3z"/>
		<path class="st0" d="M110.2,10c-0.3-0.4-0.6-0.5-0.9-0.5c-0.3,0-0.5,0.1-0.5,0.4c0,0.8,2.9,0.2,2.9,2.4c0,1.2-1,1.9-2.4,1.9
			c-1.2,0-1.8-0.3-2.5-1.1l1.3-0.9c0.4,0.5,0.6,0.7,1.1,0.7c0.4,0,0.6-0.2,0.6-0.4c0-0.9-2.8-0.2-2.8-2.4c0-1.1,0.9-1.8,2.3-1.8
			c1,0,1.7,0.3,2.2,1.1L110.2,10z"/>
	</g>
	<g>
		<path class="st0" d="M34.4,18.3l-0.2-0.8h-0.9l-0.2,0.8h-0.3l0.8-2.5H34l0.8,2.5H34.4z M33.4,17.3h0.7l-0.4-1.2h0L33.4,17.3z"/>
		<path class="st0" d="M37,18.3l-0.5-1.1h-0.6v1.1h-0.3v-2.5h0.8c0.7,0,0.9,0.2,0.9,0.7c0,0.3-0.2,0.6-0.5,0.7l0.6,1.2H37z
			 M36.3,16.9c0.2,0,0.6,0,0.6-0.4c0-0.4-0.3-0.4-0.6-0.4h-0.5v0.9H36.3z"/>
		<path class="st0" d="M38.2,18.3v-2.5h0.7c0.7,0,1,0.2,1,0.6c0,0.3-0.1,0.4-0.4,0.5v0c0.4,0.1,0.5,0.4,0.5,0.6c0,0.6-0.5,0.7-1,0.7
			H38.2z M38.9,16.9c0.2,0,0.6,0,0.6-0.4c0-0.4-0.4-0.4-0.7-0.4h-0.4v0.8H38.9z M39,18c0.5,0,0.7-0.1,0.7-0.4c0-0.3-0.2-0.5-0.6-0.5
			h-0.5V18H39z"/>
		<path class="st0" d="M40.9,18.3v-2.5h0.3v2.5H40.9z"/>
		<path class="st0" d="M42.8,18.3v-2.2H42v-0.3h1.8v0.3h-0.7v2.2H42.8z"/>
		<path class="st0" d="M46,18.3l-0.5-1.1h-0.6v1.1h-0.3v-2.5h0.8c0.7,0,0.9,0.2,0.9,0.7c0,0.3-0.2,0.6-0.5,0.7l0.6,1.2H46z
			 M45.4,16.9c0.2,0,0.6,0,0.6-0.4c0-0.4-0.3-0.4-0.6-0.4h-0.5v0.9H45.4z"/>
		<path class="st0" d="M48.7,18.3l-0.2-0.8h-0.9l-0.2,0.8H47l0.8-2.5h0.5l0.8,2.5H48.7z M47.7,17.3h0.7L48,16.1h0L47.7,17.3z"/>
		<path class="st0" d="M50.3,18.3v-2.2h-0.7v-0.3h1.8v0.3h-0.7v2.2H50.3z"/>
		<path class="st0" d="M52.2,18.3v-2.5h0.3v2.5H52.2z"/>
		<path class="st0" d="M53.3,17.1c0-0.8,0.4-1.3,1-1.3c0.7,0,1,0.6,1,1.3c0,0.8-0.4,1.3-1,1.3C53.7,18.4,53.3,17.9,53.3,17.1z
			 M55.1,17.1c0-0.6-0.3-1-0.7-1c-0.4,0-0.7,0.4-0.7,1c0,0.6,0.3,1,0.7,1C54.8,18.1,55.1,17.7,55.1,17.1z"/>
		<path class="st0" d="M57.8,18.3l-1.2-2.1h0v2.1h-0.3v-2.5h0.5l1.1,1.9h0v-1.9h0.3v2.5H57.8z"/>
		<path class="st0" d="M60.4,16.4c-0.1-0.3-0.3-0.4-0.5-0.4c-0.3,0-0.5,0.1-0.5,0.4c0,0.6,1.4,0.3,1.4,1.2c0,0.5-0.4,0.7-0.9,0.7
			c-0.5,0-0.8-0.2-0.9-0.7l0.3-0.1c0.1,0.3,0.3,0.5,0.6,0.5c0.3,0,0.5-0.1,0.5-0.4c0-0.6-1.4-0.3-1.4-1.2c0-0.4,0.3-0.7,0.8-0.7
			c0.4,0,0.7,0.2,0.8,0.6L60.4,16.4z"/>
		<path class="st0" d="M61.4,18.9l0.2-0.5h-0.2v-0.4h0.4v0.4l-0.3,0.6H61.4z"/>
		<path class="st0" d="M65.5,18.3L65,17.2h-0.6v1.1h-0.3v-2.5h0.8c0.7,0,0.9,0.2,0.9,0.7c0,0.3-0.2,0.6-0.5,0.7l0.6,1.2H65.5z
			 M64.9,16.9c0.2,0,0.6,0,0.6-0.4c0-0.4-0.3-0.4-0.6-0.4h-0.5v0.9H64.9z"/>
		<path class="st0" d="M66.7,18.3v-2.5h1.5v0.3h-1.2v0.8h0.9v0.3h-0.9V18h1.2v0.3H66.7z"/>
		<path class="st0" d="M70.3,16.4C70.2,16.2,70,16,69.8,16c-0.3,0-0.5,0.1-0.5,0.4c0,0.6,1.4,0.3,1.4,1.2c0,0.5-0.4,0.7-0.9,0.7
			c-0.5,0-0.8-0.2-0.9-0.7l0.3-0.1c0.1,0.3,0.3,0.5,0.6,0.5c0.3,0,0.5-0.1,0.5-0.4c0-0.6-1.4-0.3-1.4-1.2c0-0.4,0.3-0.7,0.8-0.7
			c0.4,0,0.7,0.2,0.8,0.6L70.3,16.4z"/>
		<path class="st0" d="M71.3,17.1c0-0.8,0.4-1.3,1-1.3c0.7,0,1,0.6,1,1.3c0,0.8-0.4,1.3-1,1.3C71.7,18.4,71.3,17.9,71.3,17.1z
			 M73.1,17.1c0-0.6-0.3-1-0.7-1c-0.4,0-0.7,0.4-0.7,1c0,0.6,0.3,1,0.7,1C72.8,18.1,73.1,17.7,73.1,17.1z"/>
		<path class="st0" d="M74.2,18.3v-2.5h0.3V18h1.1v0.3H74.2z"/>
		<path class="st0" d="M78,15.8h0.3v1.5c0,0.6-0.3,1-1,1c-0.7,0-0.9-0.4-0.9-1v-1.5h0.3v1.6c0,0.5,0.2,0.7,0.6,0.7
			c0.4,0,0.6-0.2,0.6-0.7V15.8z"/>
		<path class="st0" d="M79.8,18.3v-2.2h-0.7v-0.3h1.8v0.3h-0.7v2.2H79.8z"/>
		<path class="st0" d="M81.6,18.3v-2.5H82v2.5H81.6z"/>
		<path class="st0" d="M82.8,17.1c0-0.8,0.4-1.3,1-1.3c0.7,0,1,0.6,1,1.3c0,0.8-0.4,1.3-1,1.3C83.2,18.4,82.8,17.9,82.8,17.1z
			 M84.5,17.1c0-0.6-0.3-1-0.7-1c-0.4,0-0.7,0.4-0.7,1c0,0.6,0.3,1,0.7,1C84.3,18.1,84.5,17.7,84.5,17.1z"/>
		<path class="st0" d="M87.3,18.3l-1.2-2.1h0v2.1h-0.3v-2.5h0.5l1.1,1.9h0v-1.9h0.3v2.5H87.3z"/>
		<path class="st0" d="M89.8,16.4c-0.1-0.3-0.3-0.4-0.5-0.4c-0.3,0-0.5,0.1-0.5,0.4c0,0.6,1.4,0.3,1.4,1.2c0,0.5-0.4,0.7-0.9,0.7
			c-0.5,0-0.8-0.2-0.9-0.7l0.3-0.1c0.1,0.3,0.3,0.5,0.6,0.5c0.3,0,0.5-0.1,0.5-0.4c0-0.6-1.4-0.3-1.4-1.2c0-0.4,0.3-0.7,0.8-0.7
			c0.4,0,0.7,0.2,0.8,0.6L89.8,16.4z"/>
	</g>
	<g>
		<rect x="28.9" y="16.5" class="st1" width="0" height="1.1"/>
		<rect x="28.9" y="6.1" class="st1" width="0" height="1.1"/>
		<g>
			<path class="st2" d="M20.4,6.1v1.8h1.1H22c0.3,0,0.6,0.2,0.6,0.6v0.6v2h-5.8h-4H7.4H6.3V8.5c0-0.4,0.3-0.6,0.6-0.6h1.6V7.3V6.1H0
				v1.8h1.1h0.5c0.1,0,0.1,0,0.2,0C2,8,2.2,8.2,2.2,8.5v0.6V16c0,0.3-0.1,0.5-0.4,0.5c-0.1,0-0.1,0-0.2,0H0v1.8h1.1h7.4v-0.7v-1.1
				H7.4H6.9c-0.3,0-0.6-0.2-0.6-0.6v-3v0h6.4h4h5.8v0v1.1V16c0,0.4-0.3,0.6-0.6,0.6h-1.6v1.8h1.1h7.4v-0.7v-1.1h-1.1h-0.5
				c-0.3,0-0.6-0.2-0.6-0.6V8.5c0-0.4,0.3-0.6,0.6-0.6h1.6V7.3V6.1H20.4z"/>
			<ellipse transform="matrix(0.9732 -0.2298 0.2298 0.9732 -0.4903 1.0333)" class="st2" cx="4.2" cy="2.6" rx="2.6" ry="2.6"/>
			<circle class="st2" cx="24.7" cy="2.6" r="2.6"/>
		</g>
		<g>
			<path class="st3" d="M1.1,8.4v0.6h0.6V8.5c0,0,0-0.1,0-0.1c0,0,0,0-0.1,0H1.1z"/>
			<path class="st3" d="M22.1,8.5C22,8.4,22,8.4,22.1,8.5l-0.6,0v0.6h0.6L22.1,8.5C22.1,8.5,22.1,8.5,22.1,8.5z"/>
			<polygon class="st3" points="6.3,12.9 12.7,12.9 16.7,12.9 22.6,12.9 22.6,12.9 16.7,12.9 12.7,12.9 6.3,12.9 			"/>
			<path class="st3" d="M9,18.3c0,0.3-0.2,0.5-0.5,0.5H1.1v0.6h8.5v-1.8H9V18.3z"/>
			<rect x="28.9" y="17.7" class="st3" width="0" height="0.7"/>
			<rect x="28.9" y="7.3" class="st3" width="0" height="0.7"/>
			<path class="st3" d="M8,9.1h1.6V7.3H9v0.7c0,0.3-0.2,0.5-0.5,0.5H6.9c-0.1,0-0.1,0-0.1,0c0,0,0,0,0,0.1v2.1h0.6v-1
				C7.4,9.3,7.7,9.1,8,9.1z"/>
			<path class="st3" d="M29.4,18.3c0,0.3-0.2,0.5-0.5,0.5h-7.4v0.6H30v-1.8h-0.6V18.3z"/>
			<path class="st3" d="M22.1,13.4h-5.3h-4H6.8V16c0,0,0,0.1,0,0.1c0,0,0,0,0.1,0h0.5v-2h5.3v6.6c0,0.8-1.4,1-2.3,1l0,1.6
				c0.4,0.1,0.8,0.3,1.7,0.3c2.5,0,4.6-1.1,4.6-3.5v-6h5.3V13.4z"/>
			<path class="st3" d="M29.4,7.3v0.7c0,0.3-0.2,0.5-0.5,0.5h-1.6c-0.1,0-0.1,0-0.1,0c0,0,0,0,0,0.1V16c0,0,0,0,0,0c0,0,0,0,0.1,0
				h0.5V9.6c0-0.4,0.3-0.6,0.6-0.6H30V7.3H29.4z"/>
			<ellipse transform="matrix(0.9732 -0.2298 0.2298 0.9732 -0.2097 3.443)" class="st3" cx="14.7" cy="2.6" rx="2.6" ry="2.6"/>
			<path class="st3" d="M10.4,7.9H12c0.5,0,0.7,0.4,0.7,0.8v1.9v0.5h4v-0.5V8.5c0-0.3,0.3-0.6,0.7-0.6h1.5V6.1h-8.5V7.9z"/>
		</g>
	</g>
</g>
</svg>
